<svg xmlns="http://www.w3.org/2000/svg" width="391" height="443" viewBox="0 0 391 443">
    <defs>
        <linearGradient id="a" x1="50.075%" x2="50.075%" y1="100.014%" y2="-.005%">
            <stop offset="0%" stop-color="#B7C0EB"/>
            <stop offset="28%" stop-color="#E4E7FB"/>
            <stop offset="100%" stop-color="#E4E7FB"/>
        </linearGradient>
        <linearGradient id="b" x1="44.165%" x2="61.664%" y1="78.69%" y2="8.352%">
            <stop offset="0%" stop-color="#E4E7FB"/>
            <stop offset="21%" stop-color="#E5E8FB"/>
            <stop offset="99.781%" stop-color="#FFF" stop-opacity=".308"/>
        </linearGradient>
        <linearGradient id="c" x1="49.448%" x2="51.103%" y1="78.69%" y2="8.352%">
            <stop offset="0%" stop-color="#E4E7FB"/>
            <stop offset="21%" stop-color="#E5E8FB"/>
            <stop offset="99.781%" stop-color="#FFF" stop-opacity=".308"/>
        </linearGradient>
        <linearGradient id="d" x1="50.075%" x2="50.075%" y1="100.014%" y2="-.005%">
            <stop offset="0%" stop-color="#B7C0EB"/>
            <stop offset="28%" stop-color="#E4E7FB"/>
            <stop offset="100%" stop-color="#E4E7FB"/>
        </linearGradient>
        <linearGradient id="e" x1="50.075%" x2="50.075%" y1="100.014%" y2="-.005%">
            <stop offset="0%" stop-color="#B7C0EB"/>
            <stop offset="28%" stop-color="#E4E7FB"/>
            <stop offset="100%" stop-color="#E4E7FB"/>
        </linearGradient>
        <linearGradient id="f" x1="39.7%" x2="70.587%" y1="72.825%" y2="16.866%">
            <stop offset="0%" stop-color="#E4E7FB"/>
            <stop offset="21%" stop-color="#E5E8FB"/>
            <stop offset="99.781%" stop-color="#FFF" stop-opacity=".308"/>
        </linearGradient>
        <radialGradient id="g" cx="-127.148%" cy="9.909%" r="988.298%" fx="-127.148%" fy="9.909%" gradientTransform="matrix(.4184 .00484 -.00154 .7588 -.74 .03)">
            <stop offset="0%" stop-color="#F5F7FF"/>
            <stop offset="100%" stop-color="#234283"/>
        </radialGradient>
        <linearGradient id="h" x1="84.878%" x2="-13.492%" y1="60.492%" y2="20.544%">
            <stop offset="0%" stop-color="#B7C0EB"/>
            <stop offset="59.598%" stop-color="#E4E7FB"/>
            <stop offset="100%" stop-color="#E4E7FB"/>
        </linearGradient>
        <linearGradient id="i" x1="20.9%" x2="83.037%" y1="60.577%" y2="40.49%">
            <stop offset="0%" stop-color="#0CE2AF"/>
            <stop offset="100%" stop-color="#08BCB3"/>
        </linearGradient>
        <linearGradient id="j" x1="50.075%" x2="50.075%" y1="100.014%" y2="-.005%">
            <stop offset="0%" stop-color="#B7C0EB"/>
            <stop offset="28%" stop-color="#E4E7FB"/>
            <stop offset="100%" stop-color="#E4E7FB"/>
        </linearGradient>
        <linearGradient id="k" x1="50.075%" x2="50.075%" y1="100.014%" y2="-.005%">
            <stop offset="0%" stop-color="#B7C0EB"/>
            <stop offset="28%" stop-color="#E4E7FB"/>
            <stop offset="100%" stop-color="#E4E7FB"/>
        </linearGradient>
        <linearGradient id="l" x1="20.9%" x2="83.037%" y1="60.771%" y2="40.316%">
            <stop offset="0%" stop-color="#0CE2AF"/>
            <stop offset="100%" stop-color="#08BCB3"/>
        </linearGradient>
        <linearGradient id="m" x1="3.443%" x2="103.689%" y1="52.07%" y2="52.07%">
            <stop offset="0%" stop-color="#E4E7FB"/>
            <stop offset="100%" stop-color="#E4E7FB"/>
        </linearGradient>
        <linearGradient id="n" x1="73.447%" x2="39.235%" y1="67.254%" y2="43.642%">
            <stop offset="0%" stop-color="#FFF"/>
            <stop offset="100%" stop-color="#E4E7FB"/>
        </linearGradient>
        <linearGradient id="o" x1="55.015%" x2="44.985%" y1="88.359%" y2="11.586%">
            <stop offset="0%" stop-color="#B7C0EB"/>
            <stop offset="11%" stop-color="#CFD4F3"/>
            <stop offset="22%" stop-color="#DEE2F9"/>
            <stop offset="30%" stop-color="#E4E7FB"/>
            <stop offset="100%" stop-color="#E4E7FB"/>
        </linearGradient>
        <linearGradient id="p" x1="53.508%" x2="53.506%" y1="92.793%" y2="16.35%">
            <stop offset="0%" stop-color="#E4E7FB"/>
            <stop offset="38%" stop-color="#EAECFC"/>
            <stop offset="89%" stop-color="#FAFBFE"/>
            <stop offset="100%" stop-color="#FFF"/>
        </linearGradient>
    </defs>
    <g fill="none" fill-rule="evenodd">
        <g transform="translate(0 126)">
            <path fill="#C5CCE0" d="M195.495 92c-49.609 0-99.21 10.573-136.975 31.717C22.073 144.12 2 171.21 2 199.997c0 28.785 20.073 55.878 56.524 76.286 75.53 42.288 198.424 42.29 273.952.003C368.927 255.876 389 228.784 389 200c0-28.783-20.075-55.876-56.528-76.282C294.706 102.573 245.098 92 195.495 92m.01 218c-50.013 0-100.015-10.683-138.09-32.061C20.39 257.15 0 229.47 0 199.997c0-29.473 20.39-57.152 57.41-77.935 76.136-42.748 200.031-42.75 276.174 0C370.608 142.85 391 170.528 391 200.002c0 29.473-20.39 57.151-57.412 77.939C295.523 299.313 245.506 310 195.504 310"/>
            <path fill="#FFF" d="M355 129l-2 10-52-26 2-8zM223.656 89.376l1.892 10.021-57.953-4.627-1.143-8.167zM290.884 97.287l.833 10.164-57.152-10.66-.282-8.242zM144.33 88.648l7.752 13.205L66.59 126.35l-5.745-10.975z"/>
            <circle cx="220" cy="6" r="6" fill="#FFF"/>
        </g>
        <path fill="url(#a)" d="M168.927 169.615L63.014-12.228a6 6 0 0 0-5.185-2.98H28.471l5.04-9.166H63.54a6 6 0 0 1 5.195 2.999l103.218 178.682a6 6 0 0 1 .208 5.609l-3.233 6.699z" transform="matrix(0 -1 -1 0 322.626 398.626)"/>
        <path fill="url(#b)" d="M128.122-14.7h34.174L57.412 166.806a6 6 0 0 1-5.216 2.998l-28.783-.1L128.123-14.7z" transform="rotate(-90 279.855 115.558)"/>
        <path fill="url(#c)" d="M0 8.877L30.932 27.61a6 6 0 0 1 2.892 5.132v116.934a3 3 0 0 1-4.555 2.566L0 134.515V8.877z" transform="translate(172 88)"/>
        <path fill="url(#d)" d="M35.853 150.903l1.316-120.36a6 6 0 0 0-2.85-5.172L2.028 5.463 10.147 0l32.884 19.415a6 6 0 0 1 2.95 5.2l-.643 114.832a6 6 0 0 1-1.897 4.344l-7.588 7.112z" transform="translate(172 88)"/>
        <path fill="url(#c)" d="M0 8.877L30.932 27.61a6 6 0 0 1 2.892 5.132v116.934a3 3 0 0 1-4.555 2.566L0 134.515V8.877z" transform="translate(238 127)"/>
        <path fill="url(#d)" d="M35.853 150.903l1.316-120.36a6 6 0 0 0-2.85-5.172L2.028 5.463 10.147 0l32.884 19.415a6 6 0 0 1 2.95 5.2l-.643 114.832a6 6 0 0 1-1.897 4.344l-7.588 7.112z" transform="translate(238 127)"/>
        <g>
            <path fill="url(#c)" d="M0 8.877L30.932 27.61a6 6 0 0 1 2.892 5.132v116.934a3 3 0 0 1-4.555 2.566L0 134.515V8.877z" transform="translate(305 165)"/>
            <path fill="url(#d)" d="M35.853 150.903l1.316-120.36a6 6 0 0 0-2.85-5.172L2.028 5.463 10.147 0l32.884 19.415a6 6 0 0 1 2.95 5.2l-.643 114.832a6 6 0 0 1-1.897 4.344l-7.588 7.112z" transform="translate(305 165)"/>
        </g>
        <g>
            <path fill="url(#e)" d="M114.465 4.54l87.072 158.65a6 6 0 0 1-8.26 8.084L15.555 68.688a6 6 0 0 1-.157-10.3l90.65-56.064a6 6 0 0 1 8.417 2.216z" transform="translate(156 -1)"/>
            <path fill="#FFF" d="M267.882 4.949l86.373 157.245a6 6 0 0 1-8.257 8.086L169.704 68.603a6 6 0 0 1-.157-10.302L259.47 2.733a6 6 0 0 1 8.413 2.216z"/>
            <path fill="url(#f)" d="M106.882 5.949l86.373 157.245a6 6 0 0 1-8.257 8.086L8.704 69.603A6 6 0 0 1 8.547 59.3L98.47 3.733a6 6 0 0 1 8.413 2.216z" transform="translate(156 -1)"/>
        </g>
        <g>
            <path fill="url(#g)" d="M160.243 160c-1.724 0-3.37-.349-4.6-1.059L1.833 70.121c-2.715-1.569-2.375-4.306.76-6.117L9.525 60l146.118 84.379c1.23.71 2.876 1.058 4.6 1.058 2.082 0 4.277-.507 5.99-1.497l63.242-36.535 7.692 4.442c2.715 1.568 2.375 4.306-.76 6.117l-70.173 40.539c-1.714.99-3.91 1.497-5.99 1.497" opacity=".231" transform="translate(28 265)"/>
            <path fill="#F5F7FF" d="M267.326 358.39l-14.444-2.518-141.059-81.56c-2.711-1.568-7.45-1.371-10.58.439L35.9 312.549l-7.357-1.283v7.484l.007.001c-.007 1.001.59 1.958 1.824 2.672l153.67 88.852c2.713 1.568 7.45 1.371 10.582-.439l70.109-40.553c1.739-1.006 2.613-2.297 2.587-3.516l.004.001v-7.378"/>
            <path fill="url(#h)" d="M166.626 136.874c-3.132 1.81-7.869 2.006-10.581.439L2.375 48.46c-2.714-1.568-2.373-4.307.759-6.118L73.243 1.789c3.13-1.811 7.869-2.008 10.58-.44l153.672 88.853c2.712 1.567 2.37 4.307-.76 6.118l-70.109 40.554z" transform="translate(28 265)"/>
            <path fill="#FFFFFE" d="M194.233 400.547c-3.135 1.809-7.876 2.006-10.591.438l-153.817-88.82c-1.026-.592-1.613-1.352-1.781-2.165-.215 1.16.36 2.302 1.781 3.122l153.817 88.82c2.715 1.567 7.456 1.371 10.591-.44l70.176-40.538c1.95-1.126 2.816-2.611 2.541-3.95-.195 1.057-1.047 2.13-2.541 2.994l-70.176 40.539z"/>
            <path fill="url(#i)" d="M72.296 74.549L.219 33.052 56.535.549l72.684 41.497z" transform="translate(54.781 278.451)"/>
            <path fill="#0AE4B0" fill-rule="nonzero" d="M111.828 293.686l-32.78 18.422c-1.024.578-1.02 1.529.008 2.126a4.16 4.16 0 0 0 3.712.036l32.783-18.417c1.021-.573 1.02-1.528-.012-2.125a4.155 4.155 0 0 0-3.725-.05l.014.008zM109.47 303.884l-21.898 13.125c-.999.601-1.017 1.545-.03 2.119a3.922 3.922 0 0 0 3.589-.05l21.893-13.124c.998-.594 1.022-1.543.036-2.116a3.934 3.934 0 0 0-3.588.047l-.002-.001z"/>
            <path fill="#0DF584" fill-rule="nonzero" d="M121.447 302.23l-1.529 2.513 2.566 1.747c-.972 2.583-.604 6.086 3.265 8.722 4.892 3.312 7.294 1.065 9.497-1.456 1.44-1.62 3.145-2.781 5.082-1.455 2.296 1.563 2.216 3.835 1.141 5.625a4.686 4.686 0 0 1-5.48 1.83l.056 3.344c3.529 1.123 6.423.498 8.206-1.766l2.796 1.897 1.522-2.52-2.94-1.996c1.198-2.636.333-6.4-3.656-9.117-5.191-3.52-7.829-.97-10.109 1.566-1.297 1.464-2.61 2.781-4.547 1.465-2.068-1.413-1.865-3.392-.867-5.037a4.155 4.155 0 0 1 4.266-1.825l-.149-3.16c-3.252-.954-5.134-.053-6.538 1.367l-2.563-1.739-.02-.005z"/>
            <path fill="#F5F7FF" d="M161.627 344.04c-.009.484-.033 1.21-.073 2.176l9.098 5.253 8.137-4.872.044-1.75a2.88 2.88 0 0 0-3.166-2.937l-13.305 1.332a.816.816 0 0 0-.735.799z"/>
            <path fill="url(#j)" stroke="#FFF" stroke-width=".768" d="M5.499 1.851a.416.416 0 0 0-.605.378l.15 9.153c.003.151.088.29.221.36l6.064 3.22a2.496 2.496 0 0 0 3.666-2.26l-.13-5.847a.416.416 0 0 0-.227-.361L5.498 1.85z" transform="rotate(-58 391.804 31.08)"/>
            <path fill="#F5F7FF" d="M176.378 334.08c-.008.488-.032 1.22-.072 2.197l9.109 5.305 8.146-4.92.044-1.798a2.88 2.88 0 0 0-3.169-2.936l-13.316 1.345a.825.825 0 0 0-.742.807z"/>
            <path fill="url(#k)" stroke="#FFF" stroke-width=".768" d="M6.222 1.923a.416.416 0 0 0-.603.377l.116 9.2a.416.416 0 0 0 .222.362l6.146 3.233a2.496 2.496 0 0 0 3.658-2.255l-.109-5.924a.416.416 0 0 0-.229-.364l-9.2-4.629z" transform="rotate(-58 390.482 13.49)"/>
            <path fill="#F5F7FF" d="M144.99 353.447c-.008.484-.032 1.21-.072 2.176l9.099 5.253 8.136-4.873.044-1.749a2.88 2.88 0 0 0-3.166-2.937l-13.305 1.332a.816.816 0 0 0-.735.798z"/>
            <path fill="url(#j)" stroke="#FFF" stroke-width=".768" d="M5.499 1.851a.416.416 0 0 0-.605.378l.15 9.153c.003.151.088.29.221.36l6.064 3.22a2.496 2.496 0 0 0 3.666-2.26l-.13-5.847a.416.416 0 0 0-.227-.361L5.498 1.85z" transform="rotate(-58 391.971 50.79)"/>
            <path fill="#F5F7FF" d="M173.923 351.276c-.009.484-.033 1.21-.072 2.176l9.098 5.253 8.136-4.872.044-1.75a2.88 2.88 0 0 0-3.166-2.937l-13.305 1.332a.816.816 0 0 0-.735.798z"/>
            <path fill="url(#j)" stroke="#FFF" stroke-width=".768" d="M5.499 1.851a.416.416 0 0 0-.605.378l.15 9.153c.003.151.088.29.221.36l6.064 3.22a2.496 2.496 0 0 0 3.666-2.26l-.13-5.847a.416.416 0 0 0-.227-.361L5.498 1.85z" transform="rotate(-58 404.479 23.607)"/>
            <path fill="#F5F7FF" d="M189.378 342.08c-.008.488-.032 1.22-.072 2.197l9.109 5.305 8.146-4.92.044-1.798a2.88 2.88 0 0 0-3.169-2.936l-13.316 1.345a.825.825 0 0 0-.742.807z"/>
            <path fill="url(#k)" stroke="#FFF" stroke-width=".768" d="M6.222 1.923a.416.416 0 0 0-.603.377l.116 9.2a.416.416 0 0 0 .222.362l6.146 3.233a2.496 2.496 0 0 0 3.658-2.255l-.109-5.924a.416.416 0 0 0-.229-.364l-9.2-4.629z" transform="rotate(-58 404.198 5.764)"/>
            <path fill="#F5F7FF" d="M157.287 360.683c-.009.484-.033 1.209-.072 2.176l9.098 5.252 8.136-4.872.044-1.75a2.88 2.88 0 0 0-3.166-2.936l-13.305 1.332a.816.816 0 0 0-.735.798z"/>
            <path fill="url(#j)" stroke="#FFF" stroke-width=".768" d="M5.499 1.851a.416.416 0 0 0-.605.378l.15 9.153c.003.151.088.29.221.36l6.064 3.22a2.496 2.496 0 0 0 3.666-2.26l-.13-5.847a.416.416 0 0 0-.227-.361L5.498 1.85z" transform="rotate(-58 404.646 43.316)"/>
            <g>
                <path fill="#F5F7FF" d="M186.219 358.512c-.009.484-.033 1.21-.072 2.176l9.098 5.253 8.136-4.872.044-1.75a2.88 2.88 0 0 0-3.166-2.937l-13.305 1.332a.816.816 0 0 0-.735.798z"/>
                <path fill="url(#j)" stroke="#FFF" stroke-width=".768" d="M5.499 1.851a.416.416 0 0 0-.605.378l.15 9.153c.003.151.088.29.221.36l6.064 3.22a2.496 2.496 0 0 0 3.666-2.26l-.13-5.847a.416.416 0 0 0-.227-.361L5.498 1.85z" transform="rotate(-58 417.154 16.133)"/>
            </g>
            <g>
                <path fill="#F5F7FF" d="M197.76 365.729c-.018.484-.055 1.208-.111 2.174l16.021 9.73 8.22-4.729.1-2.342a2.88 2.88 0 0 0-2.537-2.982l-20.948-2.49a.668.668 0 0 0-.746.639z"/>
                <path fill="#E4E7FB" stroke="#FFF" stroke-width=".768" d="M198.835 365.105a.416.416 0 0 0-.012.713l14.392 8.972c.128.08.29.084.422.01l6.004-3.333a2.496 2.496 0 0 0 .102-4.305l-11.613-7.185a.416.416 0 0 0-.427-.006l-8.868 5.134z"/>
            </g>
            <g>
                <path fill="#F5F7FF" d="M201.378 349.08c-.008.488-.032 1.22-.072 2.197l9.109 5.305 8.146-4.92.044-1.798a2.88 2.88 0 0 0-3.169-2.936l-13.316 1.345a.825.825 0 0 0-.742.807z"/>
                <path fill="url(#k)" stroke="#FFF" stroke-width=".768" d="M6.222 1.923a.416.416 0 0 0-.603.377l.116 9.2a.416.416 0 0 0 .222.362l6.146 3.233a2.496 2.496 0 0 0 3.658-2.255l-.109-5.924a.416.416 0 0 0-.229-.364l-9.2-4.629z" transform="rotate(-58 416.513 -1.56)"/>
            </g>
            <g>
                <path fill="#F5F7FF" d="M169.583 367.919c-.008.483-.033 1.209-.072 2.175l9.098 5.253 8.136-4.872.044-1.75a2.88 2.88 0 0 0-3.166-2.937l-13.305 1.332a.816.816 0 0 0-.735.799z"/>
                <path fill="url(#j)" stroke="#FFF" stroke-width=".768" d="M5.499 1.851a.416.416 0 0 0-.605.378l.15 9.153c.003.151.088.29.221.36l6.064 3.22a2.496 2.496 0 0 0 3.666-2.26l-.13-5.847a.416.416 0 0 0-.227-.361L5.498 1.85z" transform="rotate(-58 417.32 35.842)"/>
            </g>
            <g>
                <path fill="#F5F7FF" d="M213.484 356.091c-.008.492-.033 1.23-.073 2.211l16.225 9.599 8.157-4.953.06-2.428a2.88 2.88 0 0 0-2.586-2.936l-21.036-2.155a.678.678 0 0 0-.747.662z"/>
                <path fill="#E4E7FB" stroke="#FFF" stroke-width=".768" d="M214.53 355.445a.416.416 0 0 0 .002.71l14.597 8.869c.13.08.294.08.426.003l6.04-3.542a2.496 2.496 0 0 0 .026-4.29l-11.84-7.14a.416.416 0 0 0-.432.002l-8.818 5.388z"/>
            </g>
            <g>
                <path fill="#F5F7FF" d="M181.82 375.187c-.008.483-.032 1.209-.072 2.175l16.189 9.45 8.137-4.872.058-2.344a2.88 2.88 0 0 0-2.59-2.937l-20.987-2.125a.668.668 0 0 0-.735.653z"/>
                <path fill="#E4E7FB" stroke="#FFF" stroke-width=".768" d="M182.885 374.544a.416.416 0 0 0 0 .713l14.547 8.719c.13.078.291.079.422.003l5.945-3.438a2.496 2.496 0 0 0 .027-4.306l-11.736-6.98a.416.416 0 0 0-.428 0l-8.777 5.289z"/>
            </g>
            <path fill="#474F66" stroke="#C5CCE0" stroke-width=".768" d="M203.708 399.115l54.058-31.604a.8.8 0 0 1 1.204.69v.053a2.52 2.52 0 0 1-1.25 2.176l-53.132 31.003a.8.8 0 0 1-1.201-.63l-.073-.936a.8.8 0 0 1 .394-.752z"/>
            <g>
                <path fill="#FFFFFE" d="M212.074 400.083l.733.581.043-.027 40.448-23.414c1.148-.665 3.155-.582 4.481.186l66.062 38.24c.155.09.293.186.415.285l.682-.502v1.66l-.004-.001c.011.432-.24.845-.772 1.153l-40.447 23.414c-1.149.664-3.155.58-4.482-.187l-66.061-38.24c-.727-.42-1.096-.959-1.095-1.47l-.003.004v-1.682"/>
                <path fill="url(#l)" d="M111.766 26.457l-66.06 38.24c-1.328.768-3.334.851-4.482.186L.776 41.47c-1.15-.665-1.005-1.826.321-2.594L67.16.636c1.326-.769 3.333-.852 4.481-.187l40.448 23.414c1.149.664 1.005 1.826-.322 2.594" transform="matrix(-1 0 0 1 324.938 375.091)"/>
                <path fill="#FFFFFE" d="M271.473 425.74l12.663 7.33 1.465-.85-12.662-7.329-1.466.848M255.909 416.73l12.663 7.33 1.465-.85-12.663-7.328-1.465.848M240.345 407.72l12.662 7.33 1.466-.848-12.663-7.33-1.465.848M224.78 398.71l12.663 7.33 1.465-.848-12.662-7.33-1.466.849"/>
            </g>
        </g>
        <g fill-rule="nonzero">
            <path fill="url(#m)" d="M34.1 22.696l.517-.21.135-.053.578-.255.112-.052.42-.195.12-.053.398-.195.36-.187h.052l.225-.12h.053l.165-.09 22.9-13.31-.15.082-.082.045-.173.098-.105.045-.33.172-.082.038-.345.172-.15.075-.39.18-.128.06-.585.248-.127.052-.533.218-.195.075-.623.233-.112.037-.75.248-.18.052-.623.18-.255.075-.645.165-.232.06c-.3.068-.6.136-.908.196h-.053c-.36.075-.75.135-1.08.187h-.225l-1.17.135h-.337l-.57.038H46.19c-.36 0-.712-.06-1.072-.105l-.346-.045-.75-.12-.36-.068-.592-.128-.42-.105-.435-.112-.533-.158-.39-.127-.578-.195-.315-.12a10.139 10.139 0 0 1-.66-.27l-.24-.105-.877-.406-.18-.097c-.293-.15-.593-.308-.885-.473l-.81-.488-.278-.165-.893-.562-.855-.555-.307-.203-.488-.338-.435-.3-.383-.27-.405-.3-.33-.24-.487-.368-.263-.195-.435-.337-.24-.188-.645-.518-.045-.037-.51-.428-.368-.307-.12-.106-.202-.172-.135-.113-.24-.21-.068-.067-.135-.12-.082-.075-.083-.075h-.037l-.06-.053-.255-.24-.143-.12-.075-.068a.218.218 0 0 0-.052-.045l-.255-.21-.068-.052-.075-.053-.105-.082L26.96.69h-.045l-.135-.082-.203-.128h-.045l-.157-.082L26.186.3l-.09-.045h-.09L25.818.18l-.18-.067-.18-.06L25.286 0H24.1l-.3.083c-.12.045-.235.1-.345.165L.518 13.295c.107-.062.22-.115.337-.158l.315-.09.323-.037h.442c.119.013.237.033.353.06h.037c.128 0 .255.067.39.112l.413.173h.037c.147.067.29.142.428.225l.39.24h.045l.375.27.068.053.382.315.06.052c.143.12.278.233.405.36l.12.113.06.06.09.083.128.12.082.067.098.075.142.128.113.097.225.195.127.105.3.27c.36.3.75.638 1.253 1.02l.128.106.495.39.27.195.472.36.113.075.247.188.368.263.427.3.398.27c.034.029.072.054.112.075l.383.262.323.218.69.45.18.113.87.54.292.172.443.263.375.225.503.278.375.187.195.098.09.045.69.33h.082l.263.112.412.173.24.098.308.112.232.09.368.12.375.12.143.053.405.112.42.113h.105l.345.075.57.127h.127l.255.045.75.12h.36c.346.046.698.083 1.036.106h2.82l.585-.038h.315c.398 0 .75-.083 1.148-.135l.277-.038c.345-.052.683-.112 1.02-.172h.143l.893-.203.247-.06.623-.165.277-.075.6-.18.21-.06.75-.24.12-.038.586-.217.195.135z" transform="matrix(-1 0 0 1 159 103)"/>
            <path fill="url(#n)" d="M44.548 23.566l.143.098c.225.165.435.33.653.503l.15.127c.187.158.382.315.562.48l.098.09c.217.188.427.39.63.585l.12.128c.202.203.405.405.592.615l.068.075c.202.218.397.45.592.676.01.018.023.036.038.052.195.24.825 1.23 1.013 1.5L71.71 14.45l.952 1.606c-.105-.143-1.185-1.92-1.297-2.056l-.233-.285-.045-.06v-.037l-.33-.383-.24-.263-.06-.067-.053-.053-.375-.405-.165-.157-.135-.135-.12-.113-.45-.42-.045-.038-.12-.105-.315-.277-.232-.195-.165-.128a.69.69 0 0 0-.105-.075l-.495-.39h-.053l-.127-.09-.323-.233-.248-.165-.157-.105-.098-.067-.495-.3-.112-.068-.383-.21-.315-.165-.127-.06h-.038l-.472-.233-.15-.06-.15-.06-.165-.075c-.158-.06-.308-.12-.465-.172h-.09l-.323-.105-.3-.083h-.135a3.975 3.975 0 0 0-.435-.097H62.093a3.112 3.112 0 0 0-.412-.038h-.848l-.45.06h-.045L37.34 21.173a4.2 4.2 0 0 1 .578-.075h.727l.615.067h.128c.21 0 .42.075.63.128h.097c.203.052.413.12.623.195h.082c.218.075.443.158.66.255l.15.068c.226.09.45.202.676.315l.112.06a13.905 13.905 0 0 1 1.418.81l.165.105.547.465z" transform="matrix(-1 0 0 1 159 103)"/>
            <path fill="url(#o)" d="M110.115 54.785l-22.9 13.28v60.075c0 .623 0 1.238-.046 1.838v.428c0 .45-.067.893-.112 1.328 0 .135 0 .27-.038.405a28.857 28.857 0 0 1-.24 1.643v.128c-.09.495-.195.968-.307 1.433-.045.18-.09.345-.135.51-.083.315-.173.623-.263.923-.09.3-.233.75-.36 1.073-.068.188-.128.383-.203.563a29.56 29.56 0 0 1-.517 1.215c-.045.105-.09.233-.143.33-.052.098-.12.24-.187.36-.158.315-.315.616-.48.916a4.99 4.99 0 0 1-.293.472c-.105.15-.292.488-.442.75-.15.263-.218.323-.33.473-.113.15-.308.435-.465.653l-.36.45c-.166.203-.33.405-.496.593l-.39.428c-.172.195-.352.375-.525.562l-.412.398c-.188.18-.383.353-.57.518l-.413.36c-.202.172-.42.337-.622.502l-.406.308c-.24.18-.472.338-.75.51l-.352.248c-.368.24-.75.465-1.118.683l22.916-13.325c.375-.218.75-.45 1.11-.698l.345-.233.75-.517c.135-.098.263-.203.398-.308.135-.105.427-.33.63-.503.202-.172.27-.225.405-.352l.585-.533a9.75 9.75 0 0 0 .397-.39l.54-.563.375-.42c.173-.195.346-.413.51-.608l.36-.442c.166-.218.323-.443.48-.676.158-.232.21-.292.316-.442l.105-.15c.127-.195.247-.413.367-.616.12-.202.18-.285.27-.442.165-.293.323-.6.473-.916.067-.12.135-.24.195-.367 0-.09.075-.195.112-.285.18-.398.36-.803.51-1.216l.068-.135c.052-.15.097-.315.15-.465.12-.338.24-.683.345-1.035l.083-.24c.067-.24.127-.48.187-.75s.083-.308.12-.473l.045-.166c.105-.442.188-.892.278-1.358v-.045c.082-.465.157-.945.217-1.433v-.21c0-.067 0-.255.038-.39.037-.135.052-.45.075-.683.022-.232 0-.45.045-.675.045-.225 0-.27 0-.412v-.233c0-.45.012-.91.037-1.38v-.248l.038-60.023z" transform="matrix(-1 0 0 1 159 103)"/>
            <path fill="url(#p)" d="M83.501 59.512c.15.12.3.255.435.398.135.135.27.27.398.42.135.15.262.3.39.465.105.135.21.285.315.435l.075.098c.105.157.21.33.307.488v.052c.105.18.203.36.308.548v.067c.097.195.187.39.277.593l.248.615v.045c.164.437.302.883.413 1.336.052.225.105.45.142.675.045.225.075.458.105.69a.173.173 0 0 1 0 .038c0 .232.053.465.068.69v.75l23.133-13.13v-.345-.78-.375c0-.12 0-.24-.045-.36l-.053-.278v-.067c0-.113-.045-.233-.067-.346l-.068-.292v-.045l-.09-.33c0-.098-.052-.21-.09-.315 0-.09-.052-.165-.075-.255l-.097-.278v-.135l-.045-.135c0-.083-.068-.165-.105-.255l-.105-.225-.113-.248-.12-.248a.608.608 0 0 0-.045-.09.75.75 0 0 1-.037-.067l-.068-.135a7.32 7.32 0 0 0-.232-.413c-.09-.157-.188-.307-.278-.45v-.045l-.09-.12-.165-.233-.143-.18c-.052-.075-.112-.142-.165-.21l-.165-.187-.045-.06-.09-.098-.172-.18-.135-.143-.188-.172-.187-.165-.045-.038-.113-.09-.195-.15-.112-.082h-.09l-.188-.128-.202-.12h-.045l-.158-.09-.202-.105h-.09l-.113-.052-.217-.098H104.962l-.113-.038-.233-.075H104.504l-.135-.037-.27-.06h-.045l-.27-.06h-.345l-.263-.075h-.12l-.36-.105-.15-.038-.36-.112-.577-.69-.443-.15-.165-.053-.368-.135-.27-.105-.345-.128-.375-.15-.262-.105-.465-.202c-.113-.038-.225-.098-.338-.15l-.457-.203-.338-.158-.48-.225-.36-.172-.57-.285-.293-.15-.87-.466c-.352-.187-.75-.39-1.087-.607-.338-.218-.638-.383-.96-.585l-.18-.128c-.233-.15-.466-.308-.69-.473l-.338-.232-.66-.495-.27-.203-.608-.495-.375-.315-.54-.466-.465-.405-.353-.33-.69-.645-.36-.345-.75-.75-.397-.398-.75-.818-.338-.36c-.39-.428-.75-.855-1.163-1.283a72.648 72.648 0 0 1-1.222-1.433c-.098-.113-.188-.233-.285-.338-.466-.57-.923-1.14-1.38-1.703l-.278-.352-.608-.75-.345-.45c-.18-.241-.36-.481-.54-.751l-.375-.503-.39-.533-.383-.525-.405-.577-.337-.473-.405-.585-.308-.443-.42-.6-.277-.413-.188-.27-.405-.615-.157-.24-.488-.75-.158-.24-.352-.54-.15-.233-.42-.66-.12-.18-.3-.481a3.14 3.14 0 0 1-.128-.21l-.345-.54-.082-.143c-.083-.135-.158-.277-.248-.405l-.097-.165-.248-.413v-.037c-.082-.143-.165-.278-.232-.398a.203.203 0 0 1 0-.06l-.42-.698-22.946 13.37.113.203c.082.127.18.308.315.533l.54.907.052.083.338.548.375.607c.033.049.063.099.09.15.12.18.24.376.367.57l.06.098.45.713.098.165.412.638.113.172.518.788.112.165.48.713c.045.06.083.128.128.188s.06.097.097.157l.255.36c.113.173.233.353.36.525.128.173.218.308.315.466l.413.577c.097.15.21.293.315.436.105.142.3.427.45.637l.307.428.488.66.113.15.18.24.585.75.352.458.578.75.225.286.097.12c.443.562.9 1.125 1.365 1.688l.113.142.143.165c.79.946 1.597 1.869 2.422 2.769l.12.143.21.217.795.833c.068.075.143.157.218.232l.15.143c.255.263.51.51.75.75l.248.24.075.068c.262.255.525.488.75.75l.225.21.57.495.39.346v.037l.405.323.51.42.083.06.262.202.473.36.187.143.33.233.285.202.413.27.187.12.075.053c.225.143.443.285.668.413l.217.12 1.073.6.87.458.308.165.382.187c.053 0 .105.045.158.083l.375.18.495.232.308.143.165.075.307.135.353.15.367.15.375.165.248.098.405.157.352.128.278.105h.037l.195.067.398.135.188.068.33.098h.06l.142.045.293.082.187.053.233.06H80.223c.064.02.129.036.195.045l.21.045c.137.024.272.057.405.097h.075l.383.128h.067c.131.047.259.102.383.165h.045l.405.217c.158.098.323.195.48.308.338.3.488.405.63.525z" transform="matrix(-1 0 0 1 159 103)"/>
            <path fill="#0AE4B0" d="M101.76 255.434c6.976 0 12.369-1.358 13.577-2.048 4.658-2.693 43.595-41.73 43.61-72.83l.053-60.082c0-1.95-.51-2.746-.818-3.054a1.113 1.113 0 0 0-.832-.338 3.06 3.06 0 0 0-1.44.48 7.869 7.869 0 0 0-1.5 1.171 54.758 54.758 0 0 1-9.564 6.993 21.456 21.456 0 0 1-10.787 2.851 27.464 27.464 0 0 1-12.752-3.361 3.922 3.922 0 0 0-.57-.038c-1.525.102-3 .584-4.29 1.403a17.869 17.869 0 0 0-5.318 4.765c-2.086 3.578-12.475 20.812-22.796 26.777-5.903 3.384-9.751 4.097-9.909 4.127a4.582 4.582 0 0 0-1.402.54c-2.43 1.403-4.133 4.817-4.126 8.29v60.075c0 8.891 3.233 15.464 9.631 19.508 6.069 3.909 13.817 4.771 19.233 4.771z"/>
            <path fill="#FFF" d="M119.177 149.307a12.753 12.753 0 0 0-3.75 3.384c-.39.683-7.749 13.453-14.927 17.594a22.395 22.395 0 0 1-6.361 2.664c-.413.079-.808.229-1.17.442-1.786 1.036-3.106 3.52-3.106 6.138v39.967c0 21.008 26.254 17.189 29.344 15.418 3.09-1.77 29.36-28.098 29.374-49.076l.038-39.967c0-2.633-1.328-3.609-3.128-2.566-.416.247-.801.541-1.148.878a34.573 34.573 0 0 1-6.226 4.554c-7.268 4.172-14.672-.18-15.062-.405a5.85 5.85 0 0 0-3.878.975z" opacity=".3" style="mix-blend-mode:overlay"/>
            <path fill="#FFF" d="M119.597 158.237a9.542 9.542 0 0 0-2.828 2.528c-.293.503-5.806 10.054-11.17 13.138a16.568 16.568 0 0 1-4.762 1.98c-.308.058-.602.17-.87.33a5.395 5.395 0 0 0-2.326 4.585v29.898c0 15.696 19.645 12.883 21.956 11.562 2.31-1.32 21.97-21.008 21.977-36.666v-29.899c0-1.973-.99-2.7-2.332-1.92-.311.181-.598.4-.855.652a26.479 26.479 0 0 1-4.659 3.4c-5.445 3.105-10.981-.15-11.251-.323a4.372 4.372 0 0 0-2.88.735z" opacity=".3" style="mix-blend-mode:overlay"/>
        </g>
    </g>
</svg>
